<svg xmlns="http://www.w3.org/2000/svg" xmlns:xlink="http://www.w3.org/1999/xlink" width="500" zoomAndPan="magnify" viewBox="0 0 375 374.999991" height="500" preserveAspectRatio="xMidYMid meet" version="1.0"><defs><clipPath id="738758081b"><path d="M 337.5 0 L 370 0 L 370 19.179688 L 337.5 19.179688 Z M 337.5 0 " clip-rule="nonzero"/></clipPath><clipPath id="15b83677c8"><path d="M 112.5 142.5 L 262.5 142.5 L 262.5 232.5 L 112.5 232.5 Z M 112.5 142.5 " clip-rule="nonzero"/></clipPath></defs><path fill="#000000" d="M 343.398438 16.824219 C 341.523438 16.824219 340 15.296875 340 13.417969 L 340 -9.167969 C 340 -11.046875 341.523438 -12.574219 343.398438 -12.574219 L 364.066406 -12.574219 C 365.941406 -12.574219 367.46875 -11.046875 367.46875 -9.167969 L 367.46875 13.417969 C 367.46875 15.296875 365.945312 16.824219 364.066406 16.824219 Z M 343.398438 16.824219 " fill-opacity="1" fill-rule="nonzero"/><g clip-path="url(#738758081b)"><path fill="#000000" d="M 364.066406 -10.265625 C 364.671875 -10.265625 365.164062 -9.773438 365.164062 -9.167969 L 365.164062 13.417969 C 365.164062 14.023438 364.671875 14.519531 364.066406 14.519531 L 343.398438 14.519531 C 342.792969 14.519531 342.296875 14.027344 342.296875 13.417969 L 342.296875 -9.167969 C 342.296875 -9.773438 342.792969 -10.265625 343.398438 -10.265625 L 364.066406 -10.265625 M 364.066406 -14.878906 L 343.398438 -14.878906 C 340.25 -14.878906 337.695312 -12.320312 337.695312 -9.167969 L 337.695312 13.417969 C 337.695312 16.570312 340.246094 19.128906 343.398438 19.128906 L 364.066406 19.128906 C 367.214844 19.128906 369.769531 16.574219 369.769531 13.417969 L 369.769531 -9.167969 C 369.769531 -12.320312 367.214844 -14.878906 364.066406 -14.878906 Z M 364.066406 -14.878906 " fill-opacity="1" fill-rule="nonzero"/></g><g clip-path="url(#15b83677c8)"><path fill="#ffffff" d="M 129.808594 225.207031 C 124.265625 225.207031 119.757812 220.695312 119.757812 215.15625 L 119.757812 159.855469 C 119.757812 154.3125 124.265625 149.804688 129.808594 149.804688 L 233.613281 149.804688 C 239.15625 149.804688 243.664062 154.3125 243.664062 159.855469 L 243.664062 215.15625 C 243.664062 220.695312 239.15625 225.207031 233.613281 225.207031 Z M 250.921875 215.15625 L 250.921875 204.128906 L 256.457031 204.128906 C 259.792969 204.128906 262.5 201.421875 262.5 198.082031 L 262.5 176.929688 C 262.5 173.589844 259.792969 170.882812 256.457031 170.882812 L 250.921875 170.882812 L 250.921875 159.855469 C 250.921875 150.3125 243.15625 142.546875 233.613281 142.546875 L 129.808594 142.546875 C 120.265625 142.546875 112.5 150.3125 112.5 159.855469 L 112.5 215.15625 C 112.5 224.699219 120.265625 232.464844 129.808594 232.464844 L 233.613281 232.464844 C 243.15625 232.464844 250.921875 224.699219 250.921875 215.15625 " fill-opacity="1" fill-rule="nonzero"/></g><path fill="#ffffff" d="M 215.417969 155.25 L 129.808594 155.25 C 127.269531 155.25 125.203125 157.316406 125.203125 159.855469 L 125.203125 215.15625 C 125.203125 217.695312 127.269531 219.761719 129.808594 219.761719 L 215.417969 219.761719 L 215.417969 155.25 " fill-opacity="1" fill-rule="nonzero"/></svg>