<svg xmlns="http://www.w3.org/2000/svg" xmlns:xlink="http://www.w3.org/1999/xlink" width="500" zoomAndPan="magnify" viewBox="0 0 375 374.999991" height="500" preserveAspectRatio="xMidYMid meet" version="1.0"><defs><clipPath id="41c2219ae8"><path d="M 337.5 0 L 370 0 L 370 19.179688 L 337.5 19.179688 Z M 337.5 0 " clip-rule="nonzero"/></clipPath><clipPath id="6190343c1e"><path d="M 112.5 228 L 134 228 L 134 255 L 112.5 255 Z M 112.5 228 " clip-rule="nonzero"/></clipPath><clipPath id="ad01ed9602"><path d="M 241 120.1875 L 262.5 120.1875 L 262.5 255 L 241 255 Z M 241 120.1875 " clip-rule="nonzero"/></clipPath></defs><path fill="#000000" d="M 343.398438 16.824219 C 341.523438 16.824219 340 15.296875 340 13.417969 L 340 -9.167969 C 340 -11.046875 341.523438 -12.574219 343.398438 -12.574219 L 364.066406 -12.574219 C 365.941406 -12.574219 367.46875 -11.046875 367.46875 -9.167969 L 367.46875 13.417969 C 367.46875 15.296875 365.945312 16.824219 364.066406 16.824219 Z M 343.398438 16.824219 " fill-opacity="1" fill-rule="nonzero"/><g clip-path="url(#41c2219ae8)"><path fill="#000000" d="M 364.066406 -10.265625 C 364.671875 -10.265625 365.164062 -9.773438 365.164062 -9.167969 L 365.164062 13.417969 C 365.164062 14.023438 364.671875 14.519531 364.066406 14.519531 L 343.398438 14.519531 C 342.792969 14.519531 342.296875 14.027344 342.296875 13.417969 L 342.296875 -9.167969 C 342.296875 -9.773438 342.792969 -10.265625 343.398438 -10.265625 L 364.066406 -10.265625 M 364.066406 -14.878906 L 343.398438 -14.878906 C 340.25 -14.878906 337.695312 -12.320312 337.695312 -9.167969 L 337.695312 13.417969 C 337.695312 16.570312 340.246094 19.128906 343.398438 19.128906 L 364.066406 19.128906 C 367.214844 19.128906 369.769531 16.574219 369.769531 13.417969 L 369.769531 -9.167969 C 369.769531 -12.320312 367.214844 -14.878906 364.066406 -14.878906 Z M 364.066406 -14.878906 " fill-opacity="1" fill-rule="nonzero"/></g><path fill="#ffffff" d="M 144.644531 211.769531 L 144.644531 244.109375 C 144.644531 250.023438 149.441406 254.824219 155.355469 254.824219 C 161.273438 254.824219 166.070312 250.023438 166.070312 244.109375 L 166.070312 211.769531 C 166.070312 205.851562 161.273438 201.054688 155.355469 201.054688 C 149.441406 201.054688 144.644531 205.851562 144.644531 211.769531 " fill-opacity="1" fill-rule="nonzero"/><g clip-path="url(#6190343c1e)"><path fill="#ffffff" d="M 112.5 238.71875 L 112.5 244.109375 C 112.5 250.023438 117.296875 254.824219 123.214844 254.824219 C 129.132812 254.824219 133.929688 250.023438 133.929688 244.109375 L 133.929688 238.71875 C 133.929688 232.800781 129.132812 228.003906 123.214844 228.003906 C 117.296875 228.003906 112.5 232.800781 112.5 238.71875 " fill-opacity="1" fill-rule="nonzero"/></g><path fill="#ffffff" d="M 176.785156 184.820312 L 176.785156 244.109375 C 176.785156 250.023438 181.582031 254.824219 187.5 254.824219 C 193.417969 254.824219 198.214844 250.023438 198.214844 244.109375 L 198.214844 184.820312 C 198.214844 178.902344 193.417969 174.105469 187.5 174.105469 C 181.582031 174.105469 176.785156 178.902344 176.785156 184.820312 " fill-opacity="1" fill-rule="nonzero"/><g clip-path="url(#ad01ed9602)"><path fill="#ffffff" d="M 251.785156 254.824219 C 257.703125 254.824219 262.5 250.023438 262.5 244.109375 L 262.5 130.921875 C 262.5 125.003906 257.703125 120.207031 251.785156 120.207031 C 245.867188 120.207031 241.070312 125.003906 241.070312 130.921875 L 241.070312 244.109375 C 241.070312 250.023438 245.867188 254.824219 251.785156 254.824219 " fill-opacity="1" fill-rule="nonzero"/></g><path fill="#ffffff" d="M 208.929688 157.871094 L 208.929688 244.109375 C 208.929688 250.023438 213.726562 254.824219 219.644531 254.824219 C 225.558594 254.824219 230.355469 250.023438 230.355469 244.109375 L 230.355469 157.871094 C 230.355469 151.953125 225.558594 147.15625 219.644531 147.15625 C 213.726562 147.15625 208.929688 151.953125 208.929688 157.871094 " fill-opacity="1" fill-rule="nonzero"/></svg>