<svg xmlns="http://www.w3.org/2000/svg" xmlns:xlink="http://www.w3.org/1999/xlink" width="500" zoomAndPan="magnify" viewBox="0 0 375 374.999991" height="500" preserveAspectRatio="xMidYMid meet" version="1.0"><defs><clipPath id="1776810296"><path d="M 112.5 140 L 262.5 140 L 262.5 245.8125 L 112.5 245.8125 Z M 112.5 140 " clip-rule="nonzero"/></clipPath><clipPath id="fcdb7782a4"><path d="M 337.5 0 L 370 0 L 370 19.179688 L 337.5 19.179688 Z M 337.5 0 " clip-rule="nonzero"/></clipPath></defs><g clip-path="url(#1776810296)"><path fill="#ffffff" d="M 112.960938 170.898438 L 126.511719 184.449219 C 160.191406 150.773438 214.808594 150.773438 248.488281 184.449219 L 262.039062 170.898438 C 220.90625 129.765625 154.160156 129.765625 112.960938 170.898438 Z M 167.171875 225.109375 L 187.5 245.4375 L 207.828125 225.109375 C 196.648438 213.859375 178.417969 213.859375 167.171875 225.109375 Z M 140.066406 198.003906 L 153.617188 211.554688 C 172.320312 192.851562 202.679688 192.851562 221.382812 211.554688 L 234.933594 198.003906 C 208.777344 171.847656 166.289062 171.847656 140.066406 198.003906 Z M 140.066406 198.003906 " fill-opacity="1" fill-rule="nonzero"/></g><path fill="#000000" d="M 343.398438 16.824219 C 341.523438 16.824219 340 15.296875 340 13.417969 L 340 -9.167969 C 340 -11.046875 341.523438 -12.574219 343.398438 -12.574219 L 364.066406 -12.574219 C 365.941406 -12.574219 367.46875 -11.046875 367.46875 -9.167969 L 367.46875 13.417969 C 367.46875 15.296875 365.945312 16.824219 364.066406 16.824219 Z M 343.398438 16.824219 " fill-opacity="1" fill-rule="nonzero"/><g clip-path="url(#fcdb7782a4)"><path fill="#000000" d="M 364.066406 -10.265625 C 364.671875 -10.265625 365.164062 -9.773438 365.164062 -9.167969 L 365.164062 13.417969 C 365.164062 14.023438 364.671875 14.519531 364.066406 14.519531 L 343.398438 14.519531 C 342.792969 14.519531 342.296875 14.027344 342.296875 13.417969 L 342.296875 -9.167969 C 342.296875 -9.773438 342.792969 -10.265625 343.398438 -10.265625 L 364.066406 -10.265625 M 364.066406 -14.878906 L 343.398438 -14.878906 C 340.25 -14.878906 337.695312 -12.320312 337.695312 -9.167969 L 337.695312 13.417969 C 337.695312 16.570312 340.246094 19.128906 343.398438 19.128906 L 364.066406 19.128906 C 367.214844 19.128906 369.769531 16.574219 369.769531 13.417969 L 369.769531 -9.167969 C 369.769531 -12.320312 367.214844 -14.878906 364.066406 -14.878906 Z M 364.066406 -14.878906 " fill-opacity="1" fill-rule="nonzero"/></g></svg>